<svg width="101" height="57" viewBox="0 0 101 57" fill="none" xmlns="http://www.w3.org/2000/svg">
<mask id="path-1-outside-1_199_4167" maskUnits="userSpaceOnUse" x="-2" y="-2" width="105" height="61" fill="black">
<rect fill="white" x="-2" y="-2" width="105" height="61"/>
<path d="M24.3606 -3.8147e-06C32.9473 -3.8147e-06 38.974 2.45333 42.4406 7.36C45.9606 12.2133 47.7206 19.2533 47.7206 28.48C47.7206 37.7067 45.9606 44.7733 42.4406 49.68C38.974 54.5333 32.9473 56.96 24.3606 56.96C15.7206 56.96 9.64063 54.5333 6.12063 49.68C2.65396 44.7733 0.920625 37.7067 0.920625 28.48C0.920625 19.2533 2.65396 12.2133 6.12063 7.36C9.64063 2.45333 15.7206 -3.8147e-06 24.3606 -3.8147e-06ZM24.3606 10.8C21.5873 10.8 19.614 11.8667 18.4406 14C17.2673 16.1333 16.6806 19.6267 16.6806 24.48V32.4C16.6806 37.3067 17.2673 40.8267 18.4406 42.96C19.614 45.0933 21.5873 46.16 24.3606 46.16C27.134 46.16 29.0806 45.0933 30.2006 42.96C31.3206 40.8267 31.8806 37.3067 31.8806 32.4V24.48C31.8806 19.5733 31.3206 16.08 30.2006 14C29.0806 11.8667 27.134 10.8 24.3606 10.8ZM78.12 -3.8147e-06C82.4933 -3.8147e-06 86.28 0.666664 89.48 2C92.7333 3.33333 95.1867 5.14666 96.84 7.44C98.5467 9.68 99.4 12.1867 99.4 14.96C99.4 17.7333 98.6533 20.24 97.16 22.48C95.6667 24.6667 93.7467 26.2133 91.4 27.12V27.44C94.44 28.4 96.7867 30.08 98.44 32.48C100.147 34.8267 101 37.68 101 41.04C100.787 45.7333 98.7333 49.5733 94.84 52.56C91 55.4933 85.32 56.96 77.8 56.96C72.6267 56.96 68.28 56.2667 64.76 54.88C61.24 53.4933 58.6267 51.6 56.92 49.2C55.2133 46.8 54.36 44.1067 54.36 41.12V39.44H68.44C68.44 43.8133 71.2133 46 76.76 46C82.3067 46 85.08 43.5467 85.08 38.64C85.08 36.7733 84.5467 35.36 83.48 34.4C82.4667 33.3867 81.1333 32.88 79.48 32.88H73.64V23.04H78.2C79.8533 23.04 81.1867 22.56 82.2 21.6C83.2667 20.5867 83.8 19.1467 83.8 17.28C83.8 15.52 83.16 14.0267 81.88 12.8C80.6533 11.5733 78.9467 10.96 76.76 10.96C74.4667 10.96 72.68 11.5467 71.4 12.72C70.12 13.8933 69.48 15.3333 69.48 17.04H56.12V15.04C56.12 12.2667 56.9733 9.73333 58.68 7.44C60.44 5.14666 62.9733 3.33333 66.28 2C69.64 0.666664 73.5867 -3.8147e-06 78.12 -3.8147e-06Z"/>
</mask>
<path d="M24.3606 -3.8147e-06C32.9473 -3.8147e-06 38.974 2.45333 42.4406 7.36C45.9606 12.2133 47.7206 19.2533 47.7206 28.48C47.7206 37.7067 45.9606 44.7733 42.4406 49.68C38.974 54.5333 32.9473 56.96 24.3606 56.96C15.7206 56.96 9.64063 54.5333 6.12063 49.68C2.65396 44.7733 0.920625 37.7067 0.920625 28.48C0.920625 19.2533 2.65396 12.2133 6.12063 7.36C9.64063 2.45333 15.7206 -3.8147e-06 24.3606 -3.8147e-06ZM24.3606 10.8C21.5873 10.8 19.614 11.8667 18.4406 14C17.2673 16.1333 16.6806 19.6267 16.6806 24.48V32.4C16.6806 37.3067 17.2673 40.8267 18.4406 42.96C19.614 45.0933 21.5873 46.16 24.3606 46.16C27.134 46.16 29.0806 45.0933 30.2006 42.96C31.3206 40.8267 31.8806 37.3067 31.8806 32.4V24.48C31.8806 19.5733 31.3206 16.08 30.2006 14C29.0806 11.8667 27.134 10.8 24.3606 10.8ZM78.12 -3.8147e-06C82.4933 -3.8147e-06 86.28 0.666664 89.48 2C92.7333 3.33333 95.1867 5.14666 96.84 7.44C98.5467 9.68 99.4 12.1867 99.4 14.96C99.4 17.7333 98.6533 20.24 97.16 22.48C95.6667 24.6667 93.7467 26.2133 91.4 27.12V27.44C94.44 28.4 96.7867 30.08 98.44 32.48C100.147 34.8267 101 37.68 101 41.04C100.787 45.7333 98.7333 49.5733 94.84 52.56C91 55.4933 85.32 56.96 77.8 56.96C72.6267 56.96 68.28 56.2667 64.76 54.88C61.24 53.4933 58.6267 51.6 56.92 49.2C55.2133 46.8 54.36 44.1067 54.36 41.12V39.44H68.44C68.44 43.8133 71.2133 46 76.76 46C82.3067 46 85.08 43.5467 85.08 38.64C85.08 36.7733 84.5467 35.36 83.48 34.4C82.4667 33.3867 81.1333 32.88 79.48 32.88H73.64V23.04H78.2C79.8533 23.04 81.1867 22.56 82.2 21.6C83.2667 20.5867 83.8 19.1467 83.8 17.28C83.8 15.52 83.16 14.0267 81.88 12.8C80.6533 11.5733 78.9467 10.96 76.76 10.96C74.4667 10.96 72.68 11.5467 71.4 12.72C70.12 13.8933 69.48 15.3333 69.48 17.04H56.12V15.04C56.12 12.2667 56.9733 9.73333 58.68 7.44C60.44 5.14666 62.9733 3.33333 66.28 2C69.64 0.666664 73.5867 -3.8147e-06 78.12 -3.8147e-06Z" fill="#FFFBED"/>
<path d="M42.4406 7.36L40.8072 8.51406L40.8143 8.52419L40.8216 8.53422L42.4406 7.36ZM42.4406 49.68L40.8155 48.5142L40.8132 48.5175L42.4406 49.68ZM6.12063 49.68L4.48718 50.8341L4.49434 50.8442L4.50162 50.8542L6.12063 49.68ZM6.12063 7.36L4.49555 6.19418L4.49316 6.19752L6.12063 7.36ZM18.4406 14L16.6882 13.0362L16.6882 13.0362L18.4406 14ZM18.4406 42.96L20.1931 41.9962L20.1931 41.9962L18.4406 42.96ZM30.2006 42.96L28.4298 42.0303L28.4298 42.0303L30.2006 42.96ZM30.2006 14L28.4298 14.9297L28.4347 14.939L28.4397 14.9482L30.2006 14ZM24.3606 2C32.5956 2 37.8593 4.3417 40.8072 8.51406L44.0741 6.20593C40.0886 0.564959 33.299 -2 24.3606 -2V2ZM40.8216 8.53422C43.9929 12.9067 45.7206 19.4621 45.7206 28.48H49.7206C49.7206 19.0446 47.9284 11.52 44.0596 6.18577L40.8216 8.53422ZM45.7206 28.48C45.7206 37.4957 43.9937 44.084 40.8155 48.5142L44.0657 50.8458C47.9275 45.4627 49.7206 37.9176 49.7206 28.48H45.7206ZM40.8132 48.5175C37.8684 52.6402 32.6033 54.96 24.3606 54.96V58.96C33.2913 58.96 40.0795 56.4265 44.0681 50.8425L40.8132 48.5175ZM24.3606 54.96C16.0619 54.96 10.7367 52.638 7.73964 48.5058L4.50162 50.8542C8.54459 56.4286 15.3793 58.96 24.3606 58.96V54.96ZM7.75407 48.5259C4.6226 44.0937 2.92063 37.5005 2.92063 28.48H-1.07937C-1.07937 37.9129 0.685315 45.453 4.48718 50.8341L7.75407 48.5259ZM2.92063 28.48C2.92063 19.4573 4.62348 12.8969 7.74809 8.52247L4.49316 6.19752C0.684438 11.5297 -1.07937 19.0494 -1.07937 28.48H2.92063ZM7.7457 8.52581C10.7458 4.34393 16.0695 2 24.3606 2V-2C15.3717 -2 8.5355 0.562733 4.49555 6.19418L7.7457 8.52581ZM24.3606 8.8C20.9808 8.8 18.2685 10.1628 16.6882 13.0362L20.1931 14.9638C20.9594 13.5705 22.1938 12.8 24.3606 12.8V8.8ZM16.6882 13.0362C15.2584 15.6357 14.6806 19.5622 14.6806 24.48H18.6806C18.6806 19.6911 19.2762 16.6309 20.1931 14.9638L16.6882 13.0362ZM14.6806 24.48V32.4H18.6806V24.48H14.6806ZM14.6806 32.4C14.6806 37.3666 15.2573 41.3223 16.6882 43.9238L20.1931 41.9962C19.2772 40.3311 18.6806 37.2468 18.6806 32.4H14.6806ZM16.6882 43.9238C18.2685 46.7972 20.9808 48.16 24.3606 48.16V44.16C22.1938 44.16 20.9594 43.3895 20.1931 41.9962L16.6882 43.9238ZM24.3606 48.16C26.0008 48.16 27.5291 47.8442 28.8617 47.114C30.2097 46.3753 31.2448 45.2737 31.9714 43.8897L28.4298 42.0303C28.0364 42.7797 27.5382 43.278 26.9396 43.606C26.3255 43.9425 25.4938 44.16 24.3606 44.16V48.16ZM31.9714 43.8897C33.3308 41.3004 33.8806 37.361 33.8806 32.4H29.8806C29.8806 37.2523 29.3105 40.3529 28.4298 42.0303L31.9714 43.8897ZM33.8806 32.4V24.48H29.8806V32.4H33.8806ZM33.8806 24.48C33.8806 19.5263 33.3331 15.5989 31.9616 13.0518L28.4397 14.9482C29.3082 16.5611 29.8806 19.6203 29.8806 24.48H33.8806ZM31.9714 13.0703C31.2448 11.6863 30.2097 10.5847 28.8617 9.84605C27.5291 9.11584 26.0008 8.8 24.3606 8.8V12.8C25.4938 12.8 26.3255 13.0175 26.9396 13.354C27.5382 13.682 28.0364 14.1803 28.4298 14.9297L31.9714 13.0703ZM89.48 2L88.7108 3.84618L88.7216 3.85061L89.48 2ZM96.84 7.44L95.2176 8.6096L95.2331 8.63105L95.2491 8.65208L96.84 7.44ZM97.16 22.48L98.8116 23.6079L98.8179 23.5987L98.8241 23.5894L97.16 22.48ZM91.4 27.12L90.6792 25.2544L89.4 25.7486V27.12H91.4ZM91.4 27.44H89.4V28.9058L90.7977 29.3472L91.4 27.44ZM98.44 32.48L96.793 33.6146L96.8075 33.6357L96.8225 33.6563L98.44 32.48ZM101 41.04L102.998 41.1308L103 41.0854V41.04H101ZM94.84 52.56L96.0541 54.1493L96.0573 54.1469L94.84 52.56ZM64.76 54.88L64.027 56.7408L64.76 54.88ZM56.92 49.2L55.2901 50.359L55.2901 50.359L56.92 49.2ZM54.36 39.44V37.44H52.36V39.44H54.36ZM68.44 39.44H70.44V37.44H68.44V39.44ZM83.48 34.4L82.0658 35.8142L82.103 35.8514L82.1421 35.8866L83.48 34.4ZM73.64 32.88H71.64V34.88H73.64V32.88ZM73.64 23.04V21.04H71.64V23.04H73.64ZM82.2 21.6L83.5755 23.0519L83.5775 23.05L82.2 21.6ZM81.88 12.8L80.4658 14.2142L80.4808 14.2293L80.4962 14.244L81.88 12.8ZM71.4 12.72L72.7514 14.1943L72.7515 14.1943L71.4 12.72ZM69.48 17.04V19.04H71.48V17.04H69.48ZM56.12 17.04H54.12V19.04H56.12V17.04ZM58.68 7.44L57.0934 6.22236L57.0844 6.2341L57.0755 6.24598L58.68 7.44ZM66.28 2L65.5423 0.14099L65.5321 0.145116L66.28 2ZM78.12 2C82.2958 2 85.8092 2.63716 88.7108 3.84615L90.2492 0.153846C86.7508 -1.30384 82.6909 -2 78.12 -2V2ZM88.7216 3.85061C91.7129 5.07658 93.8306 6.68562 95.2176 8.6096L98.4624 6.27039C96.5427 3.60771 93.7537 1.59008 90.2384 0.149388L88.7216 3.85061ZM95.2491 8.65208C96.6948 10.5495 97.4 12.6318 97.4 14.96H101.4C101.4 11.7415 100.399 8.81045 98.4309 6.22791L95.2491 8.65208ZM97.4 14.96C97.4 17.3511 96.7633 19.4695 95.4959 21.3706L98.8241 23.5894C100.543 21.0105 101.4 18.1156 101.4 14.96H97.4ZM95.5084 21.3521C94.2308 23.2229 92.6276 24.5016 90.6792 25.2544L92.1208 28.9856C94.8657 27.925 97.1026 26.1105 98.8116 23.6079L95.5084 21.3521ZM89.4 27.12V27.44H93.4V27.12H89.4ZM90.7977 29.3472C93.4555 30.1865 95.4163 31.6162 96.793 33.6146L100.087 31.3454C98.157 28.5438 95.4245 26.6135 92.0023 25.5328L90.7977 29.3472ZM96.8225 33.6563C98.2428 35.6092 99 38.0335 99 41.04H103C103 37.3265 102.051 34.0442 100.057 31.3037L96.8225 33.6563ZM99.0021 40.9492C98.8169 45.0237 97.0717 48.3273 93.6227 50.9731L96.0573 54.1469C100.395 50.8194 102.756 46.443 102.998 41.1308L99.0021 40.9492ZM93.6259 50.9707C90.281 53.5258 85.1103 54.96 77.8 54.96V58.96C85.5297 58.96 91.719 57.4608 96.0541 54.1493L93.6259 50.9707ZM77.8 54.96C72.7914 54.96 68.711 54.2869 65.493 53.0192L64.027 56.7408C67.849 58.2465 72.4619 58.96 77.8 58.96V54.96ZM65.493 53.0192C62.232 51.7345 59.976 50.0464 58.5499 48.041L55.2901 50.359C57.2773 53.1535 60.248 55.2521 64.027 56.7408L65.493 53.0192ZM58.5499 48.041C57.0876 45.9846 56.36 43.6976 56.36 41.12H52.36C52.36 44.5158 53.3391 47.6154 55.2901 50.359L58.5499 48.041ZM56.36 41.12V39.44H52.36V41.12H56.36ZM54.36 41.44H68.44V37.44H54.36V41.44ZM66.44 39.44C66.44 42.0782 67.3004 44.3684 69.2817 45.9305C71.1724 47.4213 73.778 48 76.76 48V44C74.1953 44 72.6409 43.4854 71.7583 42.7895C70.9663 42.165 70.44 41.1751 70.44 39.44H66.44ZM76.76 48C79.7854 48 82.428 47.3362 84.3252 45.658C86.2691 43.9384 87.08 41.4695 87.08 38.64H83.08C83.08 40.7171 82.5043 41.9283 81.6749 42.662C80.7987 43.4371 79.2813 44 76.76 44V48ZM87.08 38.64C87.08 36.3871 86.4239 34.3588 84.8179 32.9134L82.1421 35.8866C82.6694 36.3612 83.08 37.1596 83.08 38.64H87.08ZM84.8942 32.9858C83.4477 31.5392 81.5754 30.88 79.48 30.88V34.88C80.6912 34.88 81.4857 35.2341 82.0658 35.8142L84.8942 32.9858ZM79.48 30.88H73.64V34.88H79.48V30.88ZM75.64 32.88V23.04H71.64V32.88H75.64ZM73.64 25.04H78.2V21.04H73.64V25.04ZM78.2 25.04C80.2645 25.04 82.1235 24.4274 83.5755 23.0519L80.8245 20.1481C80.2498 20.6926 79.4422 21.04 78.2 21.04V25.04ZM83.5775 23.05C85.1422 21.5636 85.8 19.5388 85.8 17.28H81.8C81.8 18.7546 81.3912 19.6098 80.8225 20.15L83.5775 23.05ZM85.8 17.28C85.8 14.9703 84.9342 12.9568 83.2638 11.356L80.4962 14.244C81.3858 15.0965 81.8 16.0697 81.8 17.28H85.8ZM83.2942 11.3858C81.6008 9.69234 79.3316 8.96 76.76 8.96V12.96C78.5618 12.96 79.7059 13.4543 80.4658 14.2142L83.2942 11.3858ZM76.76 8.96C74.1305 8.96 71.8028 9.63761 70.0486 11.2457L72.7515 14.1943C73.5572 13.4557 74.8028 12.96 76.76 12.96V8.96ZM70.0486 11.2457C68.3635 12.7903 67.48 14.7617 67.48 17.04H71.48C71.48 15.905 71.8765 14.9963 72.7514 14.1943L70.0486 11.2457ZM69.48 15.04H56.12V19.04H69.48V15.04ZM58.12 17.04V15.04H54.12V17.04H58.12ZM58.12 15.04C58.12 12.7108 58.8261 10.5936 60.2845 8.63402L57.0755 6.24598C55.1205 8.87302 54.12 11.8225 54.12 15.04H58.12ZM60.2666 8.65763C61.7636 6.70709 63.9759 5.08556 67.0279 3.85488L65.5321 0.145116C61.9708 1.5811 59.1164 3.58624 57.0934 6.22236L60.2666 8.65763ZM67.0177 3.85898C70.0916 2.63917 73.7775 2 78.12 2V-2C73.3959 -2 69.1884 -1.30584 65.5423 0.141018L67.0177 3.85898Z" fill="#86B1F2" mask="url(#path-1-outside-1_199_4167)"/>
</svg>
