<svg width="24" height="24" viewBox="0 0 24 24" xmlns="http://www.w3.org/2000/svg">
<g clip-path="url(#clip0_104_175)">
<path d="M23.8535 11.6466L16.3535 4.14662C16.1582 3.95129 15.8418 3.95129 15.6465 4.14662C15.4512 4.34195 15.4512 4.65835 15.6465 4.85363L22.293 11.5001L0.500016 11.5001C0.223641 11.5001 0 11.7238 0 12.0001C0 12.2765 0.223641 12.5002 0.500016 12.5002L22.293 12.5002L15.6465 19.1466C15.4512 19.3419 15.4512 19.6584 15.6465 19.8536C15.7441 19.9513 15.8721 20.0001 16 20.0001C16.128 20.0001 16.2559 19.9513 16.3536 19.8536L23.8536 12.3536C24.0488 12.1584 24.0488 11.8419 23.8535 11.6466Z"/>
</g>
<defs>
<clipPath id="clip0_104_175">
<rect width="24" height="24"/>
</clipPath>
</defs>
</svg>
